{"title":"Indila - Tourner Dans Le Vide [Music Video] 720p [Sbyky]","uid":10162123,"size":45583332,"categoryP":"video","categoryS":"music_videos","magnet":"?xt=urn:btih:4db4c135c1bf8556ea9ee67c9d08dab4a330c29d&amp;dn=Indila+-+Tourner+Dans+Le+Vide+%5BMusic+Video%5D+720p+%5BSbyky%5D&amp;tr=udp%3A%2F%2Ftracker.openbittorrent.com%3A80&amp;tr=udp%3A%2F%2Fopen.demonii.com%3A1337&amp;tr=udp%3A%2F%2Ftracker.coppersurfer.tk%3A6969&amp;tr=udp%3A%2F%2Fexodus.desync.com%3A6969","seeders":5,"leechers":0,"uploader":"Sbyky","files":1,"time":1400311496,"description":"\n\nGeneral\nComplete name                            : Indila - Tourner Dans Le Vide [Music Video] 720p [Sbyky].MP4\nFormat                                   : MPEG-4\nFormat profile                           : Base Media\nCodec ID                                 : isom\nFile size                                : 43.5 MiB\nDuration                                 : 4mn 10s\nOverall bit rate mode                    : Variable\nOverall bit rate                         : 1 455 Kbps\nEncoded date                             : UTC 2014-04-09 12:11:03\nTagged date                              : UTC 2014-04-09 12:11:03\n\nVideo\nID                                       : 1\nFormat                                   : AVC\nFormat/Info                              : Advanced Video Codec\nFormat profile                           : &lt;a class=&quot;__cf_email__&quot; href=&quot;/cdn-cgi/l/email-protection&quot; data-cfemail=&quot;94d9f5fdfad4d8a7baa5&quot;&gt;[email&amp;#160;protected]&lt;/a&gt;&lt;script cf-hash='f9e31' type=&quot;text/javascript&quot;&gt;\n/* &lt;![CDATA[ */!function(){try{var t=&quot;currentScript&quot;in document?document.currentScript:function(){for(var t=document.getElementsByTagName(&quot;script&quot;),e=t.length;e--;)if(t[e].getAttribute(&quot;cf-hash&quot;))return t[e]}();if(t&amp;&amp;t.previousSibling){var e,r,n,i,c=t.previousSibling,a=c.getAttribute(&quot;data-cfemail&quot;);if(a){for(e=&quot;&quot;,r=parseInt(a.substr(0,2),16),n=2;a.length-n;n+=2)i=parseInt(a.substr(n,2),16)^r,e+=String.fromCharCode(i);e=document.createTextNode(e),c.parentNode.replaceChild(e,c)}}}catch(u){}}();/* ]]&gt; */&lt;/script&gt;\nFormat settings, CABAC                   : Yes\nFormat settings, ReFrames                : 3 frames\nCodec ID                                 : avc1\nCodec ID/Info                            : Advanced Video Coding\nDuration                                 : 4mn 10s\nBit rate                                 : 1 327 Kbps\nWidth                                    : 1 280 pixels\nHeight                                   : 720 pixels\nDisplay aspect ratio                     : 16:9\nFrame rate mode                          : Constant\nFrame rate                               : 25.000 fps\nColor space                              : YUV\nChroma subsampling                       : 4:2:0\nBit depth                                : 8 bits\nScan type                                : Progressive\nBits/(Pixel*Frame)                       : 0.058\nStream size                              : 39.6 MiB (91%)\nEncoded date                             : UTC 2014-04-09 12:11:03\nTagged date                              : UTC 2014-04-09 12:11:03\n\nAudio\nID                                       : 2\nFormat                                   : AAC\nFormat/Info                              : Advanced Audio Codec\nFormat profile                           : LC\nCodec ID                                 : 40\nDuration                                 : 4mn 10s\nBit rate mode                            : Variable\nBit rate                                 : 126 Kbps\nChannel(s)                               : 2 channels\nChannel positions                        : Front: L R\nSampling rate                            : 44.1 KHz\nCompression mode                         : Lossy\nStream size                              : 3.75 MiB (9%)\nEncoded date                             : UTC 2014-04-09 12:10:50\nTagged date                              : UTC 2014-04-09 12:10:50\n\nShared By Sbyky\n","torrent":{"xt":"urn:btih:4db4c135c1bf8556ea9ee67c9d08dab4a330c29d","amp;dn":"Indila+-+Tourner+Dans+Le+Vide+%5BMusic+Video%5D+720p+%5BSbyky%5D","amp;tr":["udp%3A%2F%2Ftracker.openbittorrent.com%3A80","udp%3A%2F%2Fopen.demonii.com%3A1337","udp%3A%2F%2Ftracker.coppersurfer.tk%3A6969","udp%3A%2F%2Fexodus.desync.com%3A6969"],"infoHash":"4db4c135c1bf8556ea9ee67c9d08dab4a330c29d","infoHashBuffer":{"type":"Buffer","data":[77,180,193,53,193,191,133,86,234,158,230,124,157,8,218,180,163,48,194,157]},"announce":[],"urlList":[]}}